<svg id="bf5249c4-3cfe-42c0-917a-ac5c983d0d37" data-name="Layer 1" xmlns="http://www.w3.org/2000/svg" viewBox="0 0 130.51 134.99"><defs><style>.f52b3e38-d3b5-4374-bd02-4916c08fb820{fill:#fff;}</style></defs><path class="f52b3e38-d3b5-4374-bd02-4916c08fb820" d="M60.42,72.54l-9.11,45.54,18,16.91h50.54s9.6-59.66,10.27-70.85c2.7-45.15-46-35.69-46-35.69L89.3,0H26.92L0,135H48.15l3.16-16.91H19.86L40.45,14.85H71.9l-6.54,33a33.13,33.13,0,0,1,9.88-5.42A32.73,32.73,0,0,1,86,40.59q12.1,0,19.69,6.74t7.58,19.41a46.77,46.77,0,0,1-1,9.32l-8.35,42H72.46l9.2-45.47Z"/></svg>